<?xml version="1.0" standalone="no"?>
<!DOCTYPE svg PUBLIC "-//W3C//DTD SVG 20010904//EN"
 "http://www.w3.org/TR/2001/REC-SVG-20010904/DTD/svg10.dtd">
<svg version="1.0" xmlns="http://www.w3.org/2000/svg"
 width="225.000000pt" height="225.000000pt" viewBox="0 0 225.000000 225.000000"
 preserveAspectRatio="xMidYMid meet">
<metadata>
Created by potrace 1.16, written by Peter Selinger 2001-2019
</metadata>
<g transform="translate(0.000000,225.000000) scale(0.100000,-0.100000)"
fill="#000000" stroke="none">
<path d="M1035 2223 c-277 -25 -516 -141 -709 -343 -347 -363 -401 -905 -134
-1341 69 -113 234 -278 347 -347 310 -189 678 -220 1009 -83 439 181 716 638
671 1107 -27 289 -138 519 -346 715 -174 164 -388 261 -637 288 -93 11 -121
11 -201 4z m262 -219 c182 -37 317 -109 448 -239 144 -142 218 -276 257 -463
26 -124 21 -299 -12 -412 -111 -391 -463 -660 -863 -660 -242 0 -445 81 -621
249 -119 114 -193 236 -243 398 -24 79 -27 105 -27 243 -1 178 12 242 75 378
86 186 235 340 414 429 171 86 389 115 572 77z"/>
<path d="M1476 1649 c-90 -71 -99 -254 -16 -342 31 -33 44 -41 74 -41 81 0
136 82 136 204 0 86 -22 144 -65 178 -36 29 -93 29 -129 1z"/>
<path d="M681 1535 c-24 -7 -56 -26 -72 -41 -26 -24 -29 -35 -29 -87 l0 -59
30 26 c35 29 116 56 170 56 53 0 135 -27 168 -55 l29 -25 7 39 c3 22 2 50 -3
63 -31 80 -178 121 -300 83z"/>
<path d="M1780 1018 c-32 -51 -122 -133 -193 -176 -181 -109 -426 -172 -672
-172 -143 0 -249 20 -343 65 l-75 35 28 -37 c102 -139 263 -245 421 -278 88
-19 220 -19 308 0 202 43 393 196 486 390 32 67 75 203 67 211 -1 1 -13 -16
-27 -38z"/>
</g>
</svg>
